<?xml version="1.0" standalone="no"?><!DOCTYPE svg PUBLIC "-//W3C//DTD SVG 1.1//EN" "http://www.w3.org/Graphics/SVG/1.1/DTD/svg11.dtd"><svg t="1704717630452" class="icon" viewBox="0 0 1024 1024" version="1.1" xmlns="http://www.w3.org/2000/svg" p-id="7435" xmlns:xlink="http://www.w3.org/1999/xlink" width="64" height="64"><path d="M546.304 580.224l57.6-75.008c12.8-16.768 32.32-19.904 49.088-7.04 16.704 12.8 17.28 32 4.48 48.768L546.304 690.56c-15.36 19.968-49.408 19.968-64.64 0L370.368 546.944c-12.8-16.704-11.072-35.968 5.696-48.768 16.768-12.864 35.072-9.728 47.872 7.04l57.6 75.008V165.376c0-21.12 11.264-38.208 32.32-38.208 21.12 0 32.384 17.152 32.384 38.208v414.848z m288.448-70.08c0-21.12 10.176-38.208 31.296-38.208 21.12 0 31.232 12.992 31.232 34.048v275.2c0 59.072-38.4 111.168-97.472 111.168H225.344c-59.136 0-95.744-47.936-95.744-107.008v-275.2c0-21.12 10.496-38.208 31.616-38.208 21.12 0 31.552 17.152 31.552 38.208v275.2c0 16.896 15.68 47.296 32.576 47.296h574.464c16.896 0 34.944-30.4 34.944-47.36V510.208z" fill="#1497d9" p-id="7436"></path></svg>