<?xml version="1.0" standalone="no"?><!DOCTYPE svg PUBLIC "-//W3C//DTD SVG 1.1//EN" "http://www.w3.org/Graphics/SVG/1.1/DTD/svg11.dtd"><svg t="1686560941182" class="icon" viewBox="0 0 1024 1024" version="1.1" xmlns="http://www.w3.org/2000/svg" p-id="1513" xmlns:xlink="http://www.w3.org/1999/xlink" width="64" height="64"><path d="M779.636364 417.28a34.909091 34.909091 0 1 1 0 69.818182H224.605091c-0.791273 0-1.536-0.186182-2.327273-0.232727-0.418909 0.023273-0.768 0.232727-1.163636 0.232727a34.909091 34.909091 0 0 1-24.994909-59.275637l157.277091-161.28a34.909091 34.909091 0 0 1 49.989818 48.733091L303.941818 417.28H779.636364z m3.607272 118.714182c7.517091 0.791273 14.941091 3.490909 20.759273 9.192727a34.909091 34.909091 0 0 1 0.628364 49.361455l-157.300364 161.28a34.769455 34.769455 0 0 1-24.994909 10.542545 34.909091 34.909091 0 0 1-24.994909-59.275636L696.808727 605.090909H221.114182a34.909091 34.909091 0 1 1 0-69.818182h554.984727c0.744727 0 1.419636 0.186182 2.117818 0.232728 1.629091-0.069818 3.165091 0.302545 4.770909 0.465454l0.256 0.046546z" fill="#797979" p-id="1514"></path></svg>